<svg xmlns="http://www.w3.org/2000/svg" xmlns:xlink="http://www.w3.org/1999/xlink" width="500" zoomAndPan="magnify" viewBox="0 0 375 374.999991" height="500" preserveAspectRatio="xMidYMid meet" version="1.0"><path fill="rgb(90.979004%, 28.239441%, 33.329773%)" d="M 129.632812 285.890625 L 53.089844 285.890625 C 139.890625 232.675781 242.050781 206.746094 345.179688 213.507812 C 268.667969 220.675781 194.773438 245.566406 129.632812 285.890625 Z M 242.0625 286.460938 L 231.550781 264.679688 C 202.605469 269.863281 173.886719 276.574219 145.523438 284.8125 C 171.683594 272.449219 225.410156 251.957031 225.410156 251.957031 C 234.722656 248.570312 244.136719 245.472656 253.636719 242.65625 C 253.679688 242.644531 253.722656 242.628906 253.765625 242.613281 L 253.769531 242.617188 C 258.167969 241.316406 262.589844 240.0625 267.023438 238.882812 L 289.992188 286.460938 Z M 184.304688 67.511719 L 246.109375 195.5625 C 267.136719 197.585938 288.113281 200.960938 308.90625 205.722656 C 288.355469 204.359375 267.78125 204.289062 247.320312 205.472656 C 233.566406 207.269531 219.910156 209.617188 206.375 212.527344 L 184.304688 166.804688 L 155.625 226.21875 C 135.429688 232.804688 115.628906 240.660156 96.335938 249.757812 Z M 187.515625 0.0117188 C 83.960938 0.0117188 0.015625 83.960938 0.015625 187.515625 C 0.015625 291.070312 83.960938 375.019531 187.515625 375.019531 C 291.070312 375.019531 375.019531 291.070312 375.019531 187.515625 C 375.019531 83.960938 291.070312 0.0117188 187.515625 0.0117188 " fill-opacity="1" fill-rule="nonzero"/></svg>